<svg xmlns="http://www.w3.org/2000/svg" height="910.223" viewBox="-21 -21 682.667 682.667" width="910.223"  xmlns:v="https://vecta.io/nano"><path d="M480 0v640H0V131.801L131.801 0zm0 0" fill="#b3f4ef"/><path d="M80 200h320v120H80zm0 0" fill="#ffe163"/><path d="M480 280v360H360.199C311.602 603.598 280 545.398 280 480c0-110.199 89.801-200 200-200zM132 0h-.281L0 131.719V132h132zm0 0" fill="#77e5e0"/><path d="M260 40h40v40h-40zm-80 0h40v40h-40zm0 0" fill="#fff"/><path d="M640 480c0 88.363-71.637 160-160 160s-160-71.637-160-160 71.637-160 160-160 160 71.637 160 160zm0 0" fill="#e76e54"/><path d="M500 560h-40v-40h40zm0-80h-40v-80h40zM80 360h200v40H80zm0 80h200v40H80zm0 0" fill="#fff"/></svg>