<svg xmlns="http://www.w3.org/2000/svg" height="512" width="512"  xmlns:v="https://vecta.io/nano"><path d="M480 156l-25.97 81.58-68 50.42h-84.06l-68-50.42-1.07-3.35L208 156l25.97-81.58 68-50.42h84.06l68 50.42z" fill="#92563a"/><path d="M480 156l-25.97 81.58-68 50.42h-84.06l-68-50.42-1.07-3.35h62.94l68-50.42 25.98-81.58L364.91 24h21.12l68 50.42z" fill="#875036"/><path d="M128 430.62V400l22.4-16.8A24.012 24.012 0 0 0 160 364v-36l24-16h32l8.14 65.58 56.29-31.06L280 328l-25 4.33-4.58-39.51a24.011 24.011 0 0 0-23.38-21.23l-46.82-1.05-69.39 47.97L120 360l-26.82 36.95 18.63 42.61z" fill="#313b4c"/><g fill="#fec9a3"><rect height="56.569" rx="28.284" transform="matrix(.788 -.616 .616 .788 -81.502 151.082)" width="67.882" x="144.532" y="165.519"/><path d="M175.838 116.94l26.746-20.908 20.908 26.746-26.746 20.908z"/></g><path d="M252.45 214.94l-62.38 48.79-79.24 54.78-16.18-66.4a95.994 95.994 0 0 1 34.04-98.28l47.1-36.92 20.91 26.73-62.39 48.79 34.85 44.56 62.39-48.78z" fill="#f35244"/><path d="M231.606 188.258l26.746-20.908 20.908 26.746-26.746 20.908z" fill="#fec9a3"/><path d="M24 488h464V232z" fill="#f98500"/><path d="m252.45 214.94-62.38 48.79-79.24 54.78-10.3-42.28a479.252 479.252 0 0 0 50.83-62l17.8 22.76 62.39-48.78z" fill="#e64c3f"/><path d="M369.652 230.426l11.113-8.239-9.53-12.853-8.989 6.666h-39.134v16h41.776a8 8 0 0 0 4.764-1.574zm34.423-25.526a8 8 0 0 0 2.859-4l9.7-30.477-15.246-4.854-8.92 28.016-5.236 3.882 9.53 12.853zm-10.319-82.294l15.248-4.848 5.088 16.003-15.248 4.848zM344 248v16h31.457a8 8 0 0 0 4.765-1.574l16.543-12.266-9.53-12.852L372.815 248zm94.022-92l-18.193 57.141-16.594 12.3 9.53 12.853 18.668-13.842a8 8 0 0 0 2.859-4l19.749-62.029a8.011 8.011 0 0 0 0-4.854l-3.821-12-15.246 4.854zm-10.689-33.573l15.246-4.854-8.287-26.029a8 8 0 0 0-2.859-4l-18.843-13.97-9.529 12.852 16.768 12.433zM368 144h16v16h-16zm-40-88h16v16h-16zm-72 48h16v16h-16zm32 112h16v16h-16zm204.067 9.111a8 8 0 0 0-7.932-.115l-21.475 11.848 24.963-78.417a8.011 8.011 0 0 0 0-4.854l-25.97-81.58a7.991 7.991 0 0 0-2.859-4l-68-50.42A8 8 0 0 0 386.03 16h-84.06a8 8 0 0 0-4.764 1.574l-68 50.42a7.989 7.989 0 0 0-2.859 4l-9.384 29.481-8.135-10.4A8 8 0 0 0 197.6 89.7l-26.737 20.909-47.1 36.92a104.207 104.207 0 0 0-36.887 106.476l24.536 104.208-24.706 34.038a8 8 0 0 0-.844 7.931L101.683 436l-81.548 45A8 8 0 0 0 24 496h464a8 8 0 0 0 8-8V232a8 8 0 0 0-3.933-6.889zm-268.214-92.546l4.51-3.527a8 8 0 0 0 1.373-11.23l-.839-1.074 11.913-37.426L304.612 32h78.776l63.8 47.308L471.6 156l-24.41 76.692L383.388 280h-78.776l-51.847-38.443-9.53 12.852 53.971 40.017A8 8 0 0 0 301.97 296h53.47L288 333.208V328a8 8 0 0 0-9.365-7.883L261.973 323l-3.607-31.109a32.145 32.145 0 0 0-31.185-28.3l-23.423-.412 80.361-62.844a8 8 0 0 0 1.373-11.23l-20.908-26.736a8 8 0 0 0-11.23-1.369l-28.32 22.138L216.4 156zm18.922 57.014l14.134-11.052 11.051 14.133-14.132 11.052-5.526-7.066zm-41.622-82.349l11.052 14.133-14.133 11.052-11.052-14.133zm-.776 51.2l.025.079a35.97 35.97 0 0 0-6.263-2.7l7.36-5.756-1.123 3.528a8.012 8.012 0 0 0 .001 4.845zm-1.469 19.4a20.308 20.308 0 0 1-3.483 28.474l-8.917 6.97a20.284 20.284 0 0 1-24.991-31.957l8.913-6.97a20.306 20.306 0 0 1 28.478 3.476zm-65.28-17.7l40.794-31.979 11.046 14.125-56.083 43.858a8 8 0 0 0-1.374 11.23l34.848 44.561a8 8 0 0 0 11.23 1.374l56.083-43.858 5.528 7.059 5.526 7.066-55.9 43.714-69.476 48.037-13.429-55.1a88.176 88.176 0 0 1 31.207-90.092zm-7.154 204.57a8.005 8.005 0 0 0 1.338-6.426l-7.978-36.258 62.5-43.211 44.547.784a16.078 16.078 0 0 1 15.593 14.153l4.58 39.51a8 8 0 0 0 9.312 6.962L272 337.505v4.531l-41.459 22.873-6.6-53.882A8 8 0 0 0 216 304h-32a7.993 7.993 0 0 0-4.438 1.344l-24 16A8 8 0 0 0 152 328v36a16.079 16.079 0 0 1-6.4 12.8l-22.4 16.8a8 8 0 0 0-3.2 6.4v25.9l-4.253 2.346-13.39-30.318zm88.969 8.541L136 417.07V404l19.2-14.4A32.154 32.154 0 0 0 168 364v-31.719L186.422 320h22.5zM480 480H55.061L480 245.551zM300.23 369.181l43.02-23.72 7.728 14.016-43.02 23.72zm56.028-30.9l16.008-8.826 7.728 14.016-16.008 8.826zM252.25 449.002l58.673-32.01 7.664 14.048-58.673 32.01zm144.008-80.025l44.005-24.007 7.664 14.048-44.005 24.007zm-47.996 88.015l88.011-48.015 7.664 14.048-88.011 48.015zm-135.998-39.294l16.002-8.73 7.664 14.048-16.002 8.73zM436.261 304.92l16.002-8.73 7.664 14.048-16.002 8.73zM156.255 449.723l16.002-8.73 7.664 14.048-16.002 8.73z"/></svg>