<svg xmlns="http://www.w3.org/2000/svg" height="512" width="512"  xmlns:v="https://vecta.io/nano"><path d="M280 200v-80a96 96 0 1 0-192 0v80a32 32 0 0 0-32 32v48h256v-48a32 32 0 0 0-32-32z" fill="#ad6643"/><path d="M472 360v64H312l-32-64v128H24l32-208h256l48 80z" fill="#e9eef2"/><path d="m160 240h48v40h-48z" fill="#f0c6a4"/><path d="M184 248a64 64 0 0 1-64-64v-64h128v64a64 64 0 0 1-64 64z" fill="#f7cca9"/><path d="M120 184a32 32 0 1 1 0-64zm128-64a32 32 0 1 1 0 64z" fill="#f0c6a4"/><path d="m248 176-48 8-8-16h-16l-8 16-48-8v-56h128z" fill="#3397e8"/><path d="m120 120 96-48 32 48z" fill="#f7cca9"/><path d="m160 280h48l-24 48z" fill="#f0c6a4"/><path d="M456 394.742V312h-32v82.742a48 48 0 1 0 32 0z" fill="#3397e8"/><path d="M432 344h48a0 0 0 0 1 0 0v48a0 0 0 0 1 0 0h-48a16 16 0 0 1-16-16v-16a16 16 0 0 1 16-16z" fill="#f7cca9"/><g fill="#2978b8"><circle cx="472" cy="264" r="16"/><circle cx="408" cy="216" r="16"/></g><g fill="#dadcde"><path d="M96 360v128H80V360a8 8 0 0 1 16 0zm80-32h16v160h-16z"/><path d="m160 280h-56l32 24v24l48 64v-64z"/><path d="M208 280h56l-32 24v24l-48 64v-64zm80 80v128h-16V360a8 8 0 0 1 16 0z"/></g><path d="M472 288a24 24 0 1 0-24-24 24.027 24.027 0 0 0 24 24zm0-32a8 8 0 1 1-8 8 8.009 8.009 0 0 1 8-8zm-64-16a24 24 0 1 0-24-24 24.027 24.027 0 0 0 24 24zm0-32a8 8 0 1 1-8 8 8.009 8.009 0 0 1 8-8z"/><circle cx="408" cy="280" r="8"/><circle cx="472" cy="200" r="8"/><path d="M479.138 400H480a8 8 0 0 0 8-8v-48a8 8 0 0 0-8-8h-16v-16h8a8 8 0 0 0 0-16h-64a8 8 0 0 0 0 16h8v22.131a24.076 24.076 0 0 0-6.624 9.869h-44.847L320 277.784V232a40.071 40.071 0 0 0-32-39.2V120a104 104 0 0 0-208 0v72.8A40.071 40.071 0 0 0 48 232v47.386l-31.907 207.4A8 8 0 0 0 24 496h256a8 8 0 0 0 8-8v-94.111l16.845 33.689A8 8 0 0 0 312 432h72.581a56 56 0 1 0 94.557-32zM472 384h-40a8.009 8.009 0 0 1-8-8v-16a8.009 8.009 0 0 1 8-8h40zm-40-64h16v16h-16zm-128-88v40h-88v-23.528a72.142 72.142 0 0 0 39.635-57.212A39.827 39.827 0 0 0 272 183.978V200a8 8 0 0 0 8 8 24.028 24.028 0 0 1 24 24zm-163.2 65.6L128 288h27.056L176 329.889V368l-32-42.667V304a8 8 0 0 0-3.2-6.4zM128 128h112v41.223l-35.487 5.915-5.358-10.716A8 8 0 0 0 192 160h-16a8 8 0 0 0-7.156 4.422l-5.358 10.716L128 169.223zm128 1.376a24 24 0 0 1 0 45.248zM153.888 112l59.373-29.687L233.052 112zM112 174.624a24 24 0 0 1 0-45.248zm54.684 17.268a8 8 0 0 0 8.471-4.314L180.944 176h6.111l5.789 11.578a8.007 8.007 0 0 0 8.47 4.314l38.649-6.442a55.981 55.981 0 0 1-111.926 0zM184 256a71.947 71.947 0 0 0 16-1.814v23.925l-16 32-16-32v-23.925A71.947 71.947 0 0 0 184 256zm8 73.889L212.944 288H240l-12.8 9.6a8 8 0 0 0-3.2 6.4v21.333L192 368zM184 32a88.1 88.1 0 0 1 88 88v.022a39.776 39.776 0 0 0-19.55-7.768l-29.794-44.692a8 8 0 0 0-10.234-2.717l-94.411 47.206A39.775 39.775 0 0 0 96 120.022V120a88.1 88.1 0 0 1 88-88zM88 208a8 8 0 0 0 8-8v-16.022a39.827 39.827 0 0 0 16.365 7.282A72.142 72.142 0 0 0 152 248.472V272H64v-40a24.028 24.028 0 0 1 24-24zm-25.137 80h38.47L128 308v20a8 8 0 0 0 1.6 4.8l46.4 61.866V480H96V360a8 8 0 0 0-16 0v120H33.325zm254.081 128l-29.789-59.578A8 8 0 0 0 272 360v120h-80v-85.334l46.4-61.866a8 8 0 0 0 1.6-4.8v-20l26.667-20h40.8l45.669 76.116A8 8 0 0 0 360 368h48v8a23.868 23.868 0 0 0 5.174 14.858A56.375 56.375 0 0 0 389.414 416zM440 480a40 40 0 1 1 40-40 40.045 40.045 0 0 1-40 40z"/></svg>