<svg xmlns="http://www.w3.org/2000/svg" viewBox="0 0 512.001 512.001"  xmlns:v="https://vecta.io/nano"><path d="M376.412 11.22H48.795a9.71 9.71 0 0 0-9.709 9.709v296.008h433.828V107.689L376.412 11.22z" fill="#f3e8d6"/><path d="M432.302 67.171v249.766h40.611V107.689l-40.611-40.518z" fill="#e5d8c6"/><path d="M176.263 176.646H14.796a7.28 7.28 0 0 0-7.277 7.277v309.58a7.28 7.28 0 0 0 7.277 7.277h482.407a7.28 7.28 0 0 0 7.277-7.277V237.489a7.28 7.28 0 0 0-7.277-7.277H245.402c-9.284 0-18.017-4.403-23.538-11.867l-22.063-29.83c-5.521-7.465-14.254-11.869-23.538-11.869z" fill="#ffbf14"/><path d="M159.2 188.514l22.063 29.83c5.521 7.464 14.254 11.867 23.538 11.867h40.601c-9.284 0-18.017-4.403-23.538-11.867l-22.063-29.83c-5.521-7.464-14.254-11.867-23.538-11.867h-40.601c9.284-.001 18.017 4.403 23.538 11.867zm338.003 41.697h-40.601a7.28 7.28 0 0 1 7.277 7.277v256.016a7.28 7.28 0 0 1-7.277 7.277h40.601a7.28 7.28 0 0 0 7.277-7.277V237.489a7.28 7.28 0 0 0-7.277-7.278z" fill="#eaa200"/><path d="M420.744 425.851H91.256a8.22 8.22 0 0 1-8.216-8.216V310.753a8.22 8.22 0 0 1 8.216-8.216h329.488a8.22 8.22 0 0 1 8.216 8.216v106.882a8.22 8.22 0 0 1-8.216 8.216z" fill="#2d5872"/><path d="M420.744 302.537h-40.729a8.22 8.22 0 0 1 8.216 8.216v106.882a8.22 8.22 0 0 1-8.216 8.216h40.729a8.22 8.22 0 0 0 8.216-8.216V310.753a8.22 8.22 0 0 0-8.216-8.216z" fill="#1d4859"/><path d="M142.187 378.755c.227-13.074-27.823-9.551-27.464-30.21.226-12.987 11.46-17.239 21.484-17.065 5.143.089 16.54 1.508 16.44 7.261-.035 2.005-1.499 5.991-4.637 5.936-2.702-.047-4.649-3.394-11.971-3.522-6.276-.109-9.893 2.357-9.966 6.541-.187 10.809 27.858 7.547 27.466 30.123-.216 12.465-9.045 18.764-21.074 18.555-11.419-.199-20.035-6.103-19.948-11.158.043-2.441 2.372-6.062 5.074-6.015 3.574.062 5.811 6.814 14.702 6.969 5.23.091 9.803-2.184 9.894-7.415zm32.456-19.619l13.249.23c2.267.039 3.536 2.241 3.495 4.595-.035 2.005-1.209 4.339-3.649 4.296l-13.25-.23-.304 17.52 24.668.429c2.267.039 3.533 2.415 3.486 5.118-.041 2.354-1.218 4.862-3.658 4.82l-31.032-.539c-2.528-.044-4.947-1.307-4.906-3.66l.982-56.572c.041-2.354 2.503-3.531 5.031-3.487l31.031.539c2.441.042 3.53 2.59 3.489 4.943-.047 2.702-1.395 5.033-3.662 4.993l-24.668-.428-.302 17.433zm56.743-17.3c-5.84-.101-9.209 3.066-9.327 9.865l-.423 24.32c-.118 6.8 3.138 10.081 9.153 10.186 7.932.138 8.728-5.516 9.053-9.172.221-2.699 2.677-3.529 5.641-3.478 3.922.069 5.733 1.234 5.656 5.679-.184 10.547-8.929 17.11-21.133 16.898-10.983-.191-19.954-5.753-19.702-20.31l.422-24.32c.253-14.557 9.499-19.801 20.482-19.612 12.116.211 20.634 6.811 20.458 16.923-.079 4.532-1.927 5.546-5.763 5.48-3.225-.056-5.562-1.055-5.604-3.672-.125-2.705-.632-8.643-8.913-8.787zm29.879-6.811c.032-1.83 1.542-3.461 3.721-3.423l17.259.3c11.419.199 20.583 4.717 20.342 18.577-.174 10.025-5.15 15.344-11.722 17.235l11.051 21.38c.341.443.418 1.053.412 1.402-.05 2.876-3.851 5.863-7.164 5.805-1.569-.027-3.034-1.011-3.876-2.77l-11.96-24.274-7.322-.127-.395 22.751c-.041 2.353-2.852 3.525-5.728 3.475-2.789-.048-5.645-1.319-5.604-3.671l.986-56.66zm11.219 6.648l-.323 18.566 9.588.166c5.666.099 9.368-2.191 9.487-9.077s-3.499-9.391-9.164-9.489l-9.588-.166zm51.082 17.463l13.249.23c2.267.039 3.536 2.241 3.495 4.595-.035 2.005-1.209 4.339-3.649 4.296l-13.25-.23-.304 17.52 24.668.429c2.267.039 3.533 2.415 3.486 5.118-.041 2.354-1.218 4.862-3.658 4.82l-31.032-.539c-2.527-.044-4.947-1.307-4.906-3.66l.983-56.572c.041-2.354 2.503-3.531 5.031-3.487l31.031.539c2.441.042 3.53 2.59 3.489 4.943-.047 2.702-1.395 5.033-3.662 4.993l-24.668-.428-.303 17.433zm73.303-26.936c2.441.043 3.529 2.678 3.486 5.118-.047 2.702-1.397 5.12-3.663 5.08l-12.726-.221-.868 49.947c-.041 2.354-2.938 3.524-5.727 3.476-2.876-.05-5.645-1.319-5.604-3.672l.868-49.947-12.813-.222c-2.267-.039-3.533-2.415-3.484-5.205.042-2.441 1.221-5.036 3.662-4.994l36.869.64z" fill="#fff"/><path d="M376.562 91.314V11.22l96.352 96.352H392.82c-8.979-.001-16.258-7.279-16.258-16.258z" fill="#e5d8c6"/><path d="M423.617 146.733a7.52 7.52 0 0 0 7.519-7.519 7.52 7.52 0 0 0-7.519-7.519H177.353a7.52 7.52 0 0 0-7.519 7.519 7.52 7.52 0 0 0 7.519 7.519h246.264zm-281.25-15.039H88.382a7.52 7.52 0 0 0-7.519 7.519 7.52 7.52 0 0 0 7.519 7.519h53.985a7.52 7.52 0 0 0 7.519-7.519 7.52 7.52 0 0 0-7.519-7.519zM88.382 95.267h238.799a7.52 7.52 0 0 0 7.519-7.519 7.52 7.52 0 0 0-7.519-7.519H88.382a7.52 7.52 0 0 0-7.519 7.519 7.52 7.52 0 0 0 7.519 7.519zm408.821 127.425h-16.771l-.056-115.873c-.171-1.69-.894-3.312-2.147-4.565l-96.35-96.351c-1.401-1.401-3.264-2.149-5.169-2.187l-.299-.015H48.795c-9.5 0-17.228 7.729-17.228 17.228v148.198h-16.77C6.638 169.127 0 175.765 0 183.923v309.581c0 8.158 6.638 14.797 14.797 14.797h482.407c8.159 0 14.797-6.638 14.797-14.797V237.488a14.82 14.82 0 0 0-14.798-14.796zM384.082 29.585l70.526 70.467H392.82a8.75 8.75 0 0 1-8.739-8.738l.001-61.729zM46.605 20.929c0-1.207.982-2.189 2.19-2.189h320.248v72.575c0 13.111 10.666 23.776 23.777 23.776h72.574v107.601H245.402c-6.869 0-13.408-3.296-17.493-8.819l-22.063-29.83c-6.908-9.34-17.967-14.916-29.583-14.916H46.605V20.929zm450.357 472.334H15.038V184.165h161.224c6.869 0 13.408 3.297 17.493 8.82l22.063 29.83c6.908 9.339 17.967 14.915 29.583 14.915h251.56l.001 255.533zM75.521 310.753v106.882c0 8.676 7.059 15.735 15.735 15.735h243.45a7.52 7.52 0 0 0 7.519-7.519 7.52 7.52 0 0 0-7.519-7.519H91.256a.7.7 0 0 1-.697-.697V310.753c0-.385.312-.697.697-.697h329.488a.7.7 0 0 1 .697.697v106.882c0 .385-.312.697-.697.697h-51.052a7.52 7.52 0 0 0-7.519 7.519 7.52 7.52 0 0 0 7.519 7.519h51.052c8.676 0 15.735-7.059 15.735-15.735V310.753c0-8.676-7.059-15.735-15.735-15.735H91.256c-8.676 0-15.735 7.059-15.735 15.735z"/></svg>