<svg xmlns="http://www.w3.org/2000/svg" height="512" width="512"  xmlns:v="https://vecta.io/nano"><path d="M23.349 445.596c-7.104-4.262-9.407-13.476-5.145-20.58l46.063-76.771v-76.178c0-8.284 6.716-15 15-15s15 6.716 15 15V352.4c0 2.719-.739 5.386-2.138 7.717l-48.2 80.333c-3.612 6.021-12.491 9.998-20.58 5.146z" fill="#08475e"/><path d="M191.733 383.467c-8.284 0-15-6.716-15-15v-56.239l-41.521-27.68a15 15 0 0 1-4.16-20.801c4.594-6.893 13.907-8.754 20.801-4.161l48.2 32.133a15 15 0 0 1 6.68 12.481v64.267c0 8.284-6.715 15-15 15zM215.9 218.852c-35.928-24.058-57.367-64.206-57.367-107.452 0-8.284-6.716-15-15-15s-15 6.716-15 15a159 159 0 0 0 70.938 132.554c2.464 1.643 5.367 2.52 8.329 2.52a15 15 0 0 0 14.996-15c0-5.297-2.748-9.953-6.896-12.622z" fill="#05303d"/><path d="M111.4 64.267c-26.031 0-47.133 21.102-47.133 47.133v175.667h79.267c8.284 0 15-6.716 15-15V111.4c-.001-26.031-21.103-47.133-47.134-47.133z" fill="#0a617d"/><path d="M158.533 272.067V111.4c0-19.984-12.444-37.051-30-43.908v219.575h15c8.285 0 15-6.716 15-15z" fill="#08475e"/><path d="M500.815 16.043L441.762.499c-8.019-2.112-16.216 2.676-18.324 10.688s2.676 16.215 10.688 18.324l23.589 6.209-96.693 55.254c-7.192 4.11-9.691 13.273-5.581 20.466s13.274 9.691 20.466 5.581l97.485-55.707-6.717 25.531c-2.108 8.012 2.678 16.215 10.688 18.323 8.436 2.217 16.329-3.106 18.323-10.689l15.817-60.113c2.108-8.011-2.677-16.214-10.688-18.323z" fill="#3291ff"/><path d="M497 224.933H368.467c-8.284 0-15 6.716-15 15V289.2H256c-8.284 0-15 6.716-15 15v49.267h-97.467c-8.284 0-15 6.716-15 15v49.267H15c-8.284 0-15 6.716-15 15V497c0 8.284 6.716 15 15 15h482c8.284 0 15-6.716 15-15V239.933c0-8.284-6.716-15-15-15z" fill="gold"/><path d="M92.639 86.425c-5.857-5.858-15.355-5.858-21.213 0L61.197 96.654C25.229 132.621 0 184.595 0 244.397c0 8.284 6.716 15 15 15s15-6.716 15-15c0-47.797 18.613-92.733 52.41-126.53l10.229-10.229a15 15 0 0 0 0-21.213z" fill="#08475e"/><path d="M512 497V239.933c0-8.284-6.716-15-15-15H368.467c-8.284 0-15 6.716-15 15V289.2H256c-8.284 0-15 6.716-15 15v49.267h-97.467c-8.284 0-15 6.716-15 15V512H497c8.284 0 15-6.716 15-15z" fill="#ffaf00"/><path d="M128.533 94.267c-25.989 0-47.134-21.144-47.134-47.133S102.544 0 128.533 0s47.133 21.144 47.133 47.133-21.144 47.134-47.133 47.134z" fill="#ffe1d7"/><path d="M175.666 47.133C175.666 21.144 154.522 0 128.533 0v94.267c25.989 0 47.133-21.144 47.133-47.134z" fill="#ffc5c1"/></svg>