<svg xmlns="http://www.w3.org/2000/svg" viewBox="0 0 475.312 475.312"  xmlns:v="https://vecta.io/nano"><g fill="#ffa900"><path d="M213.656 35.312l24-24 24 24v288l-24 24-24-24v-288z"/><path d="M69.656 179.312l24 24h288l24-24-24-24h-288l-24 24z"/><path d="M357.656 299.312v-32l-208-208h-32v32l208 208h32z"/><path d="M325.656 59.312h32v32l-208 208h-32v-32l208-208z"/></g><g fill="#f80"><path d="M160.376 55.456l12.992-31.352 31.352 12.984 110.216 266.08-12.992 31.352-31.352-12.984-110.216-266.08z"/><path d="M82.448 243.6l31.352 12.992 266.08-110.216 12.984-31.352-31.352-12.992-266.08 110.216L82.448 243.6z"/><path d="M394.44 244.256l-12.24-29.568L110.432 102.12l-29.56 12.248 12.24 29.568L364.88 256.504l29.56-12.248z"/><path d="M273.032 34.768l29.568-12.24 12.248 29.56L202.28 323.856l-29.568 12.24-12.248-29.56L273.032 34.768z"/></g><path d="M237.656 83.312h0c53.019 0 96 42.981 96 96h0c0 53.019-42.981 96-96 96h0c-53.019 0-96-42.981-96-96h0c0-53.019 42.981-96 96-96z" fill="#763a02"/><path d="M157.656 379.312h-104v8c.053 48.579 39.421 87.947 88 88h104v-8c-.053-48.579-39.421-87.947-88-88z" fill="#33bc00"/><path d="M317.656 379.312c-48.579.053-87.947 39.421-88 88v8h104c48.579-.053 87.947-39.421 88-88v-8h-104z" fill="#008100"/><path d="M316.512 124.64c-8.7 72.045-69.673 126.344-142.24 126.672 39.721 35.052 100.336 31.267 135.388-8.454 29.225-33.117 32.057-81.91 6.86-118.186l-.008-.032z" fill="#804300"/><path d="M317.656 379.312c-28.699.029-55.577 14.065-72 37.6v-66.288l21.744-21.712 38.872 16.096 15.744-37.992.328.328h43.312v-42.512l39.24-16.248-16.576-40-.432-.176 29.08-29.096-29.712-29.752 16.104-38.864-37.992-15.744.288-.328V51.312h-42.472l-16.256-39.24-40 16.576-.176.432L237.656 0l-29.744 29.712-38.872-16.064-15.744 37.992-.328-.328h-43.312v42.48l-39.24 16.248 16.576 40 .432.176-29.08 29.096 29.712 29.752-16.104 38.872 37.992 15.744-.288.32v43.312h42.472l16.256 39.24 40-16.576.176-.432 21.096 21.08v66.288c-16.423-23.535-43.301-37.571-72-37.6h-104v8c.053 48.579 39.421 87.947 88 88h192c48.579-.053 87.947-39.421 88-88v-8h-104zm-176 80c-36.653-.044-67.44-27.579-71.56-64h87.56c36.653.044 67.44 27.579 71.56 64h-87.56zm108.24-192.96c-2.024.288-3.848.464-5.64.624s-3.832.272-5.776.296h-.976c-2.448 0-4.864-.168-7.264-.368-1.936-.192-3.928-.44-6.112-.8l-4.352-.68-4.128-1.064c-8.127-2.098-15.909-5.358-23.104-9.68-1.32-.8-2.672-1.536-3.944-2.4l-.936-.688c-.744-.512-1.44-1.08-2.16-1.6-9.342-6.924-17.227-15.623-23.2-25.6a87.52 87.52 0 0 1-11.64-32.8v-.072c-.28-2.008-.464-3.808-.616-5.6-.224-2.136-.392-4.352-.392-6.608s.168-4.68.352-6.992c.192-2.064.44-4.208.8-6.552l.664-4.288c.296-1.448.728-2.848 1.096-4.264a87.22 87.22 0 0 1 9.688-23.056c.8-1.328 1.552-2.688 2.4-4l.288-.392c.632-.92 1.344-1.784 2.008-2.68 6.905-9.336 15.582-17.22 25.536-23.2 7.205-4.337 15.001-7.606 23.144-9.704l4.312-1.112c1.6-.328 3.2-.504 4.8-.736l.616-.088c1.984-.28 3.768-.464 5.528-.624 2.136-.16 4.272-.32 6.448-.328h.304c2.504 0 4.976.168 7.424.376 1.92.192 3.896.44 6.048.8l4.352.68 4.128 1.064c8.143 2.098 15.939 5.367 23.144 9.704 1.304.8 2.648 1.528 3.904 2.4l.936.688c.744.512 1.44 1.08 2.16 1.6 9.342 6.924 17.227 15.623 23.2 25.6a87.52 87.52 0 0 1 11.64 32.8v.072c.28 2.008.464 3.808.616 5.6.168 2.216.336 4.432.336 6.688s-.168 4.68-.352 6.992c-.192 2.064-.44 4.208-.8 6.552l-.664 4.288c-.296 1.448-.728 2.848-1.096 4.264a87.22 87.22 0 0 1-9.688 23.056c-.8 1.328-1.552 2.688-2.4 4l-.288.392c-.632.92-1.344 1.784-2.008 2.68-6.924 9.342-15.623 17.227-25.6 23.2-7.195 4.322-14.977 7.582-23.104 9.68l-4.312 1.112c-1.6.328-3.2.504-4.8.736l-.52.032zm56.376 36.8l-8.616 20.92-20.904-8.656-7.096-17.04v-20.152c5.719-1.852 11.265-4.2 16.576-7.016l11.616 11.616 8.424 20.328zm43.384-11.84h-20.688l-17.56-17.552-6.4-15.376c.128-.112.248-.24.376-.352a104.97 104.97 0 0 0 12.28-12.408l11.856 4.912 20.136 20.088v20.688zm15.2-43.472L338.6 236.968l-9.08-9.08a103.34 103.34 0 0 0 7.048-16.576h16.568l22.92 9.504 7.92 19.112-19.12 7.912zm13.488-52.528H356.32l-15.152-6.272c.296-3.2.496-6.44.496-9.728 0-2.648-.128-5.36-.392-8.28l18.632-7.72h18.44l16 16-16 16zm-16.8-84.624l20.872 8.624-8.656 20.896-17.04 7.104h-20.152c-1.855-5.719-4.205-11.266-7.024-16.576l11.616-11.616 20.384-8.432zm-11.888-43.376V88l-17.56 17.552-15.368 6.4c-.168-.192-.352-.368-.52-.56a104.89 104.89 0 0 0-12.248-12.096l4.912-11.856 20.096-20.128h20.688zm-51.384-34.336l7.912 19.136-10.872 26.256-9.08 9.08a103.43 103.43 0 0 0-16.576-7.048V63.832l9.496-22.92 19.12-7.936zm-76.616 5.648l16-16 16 16v22.024l-6.28 15.16c-3.2-.296-6.4-.496-9.72-.496-2.664 0-5.376.128-8.28.392l-7.72-18.64v-18.44zm-52.624 16.8l8.624-20.872 20.904 8.656 7.096 17.04V80.4a103.4 103.4 0 0 0-16.576 7.024l-11.616-11.616-8.432-20.384zm-43.376 11.888h20.688l17.56 17.552 6.4 15.376c-.128.112-.248.24-.376.352A104.97 104.97 0 0 0 157.648 113l-11.896-4.888L125.656 88V67.312zm-15.2 43.472l26.256 10.872 9.08 9.08a103.34 103.34 0 0 0-7.048 16.576h-16.568l-22.92-9.504-7.92-19.112 19.12-7.912zm-13.488 52.528h22.024l15.152 6.272c-.296 3.2-.496 6.44-.496 9.728 0 2.648.128 5.36.392 8.28l-18.632 7.72h-18.44l-16-16 16-16zm16.8 84.624l-20.872-8.624 8.656-20.904 17.04-7.096h20.152c1.855 5.719 4.205 11.266 7.024 16.576l-11.616 11.616-20.384 8.432zm11.888 43.376v-20.688l17.56-17.552 15.368-6.4c.168.192.352.368.52.56a104.89 104.89 0 0 0 12.248 12.096l-4.896 11.888-20.112 20.096h-20.688zm51.384 34.336l-7.912-19.136L180 280.256l9.08-9.08a103.34 103.34 0 0 0 16.576 7.048v16.568l-9.504 22.92-19.112 7.936zm44.616-27.672l6.28-15.16c1.296.12 2.616.128 3.92.2 1.848.12 3.736.272 5.536.28l.264.016c1.288 0 2.544-.144 3.824-.192 1.48-.064 2.896-.056 4.456-.2l7.72 18.64v18.4l-16 16-16-16v-21.984zm112 161.336h-87.56c4.12-36.421 34.907-63.956 71.56-64h87.56c-4.119 36.421-34.907 63.956-71.56 64z"/></svg>