<svg viewBox="0 0 48 48" xmlns="http://www.w3.org/2000/svg"><defs><style>.cls-1{fill:#fc6}.cls-2{fill:#ffde76}.cls-3{fill:#f6ccaf}.cls-4{fill:#ffdec7}.cls-5{fill:#374f68}.cls-6{fill:green}.cls-8{fill:#228b22}</style></defs><g data-name="Crowd Patient" id="Crowd_Patient"><path class="cls-1" d="M18.45 38.92A9 9 0 0015.52 43H1v-1c0-8.45 10.6-12.13 15.84-5.84a8.89 8.89 0 011.61 2.76z"/><path class="cls-2" d="M18.45 38.92A8.82 8.82 0 0016.53 41H6a2.84 2.84 0 01-2.52-3.76 8.59 8.59 0 01.69-1.58 2.77 2.77 0 011.58-1.57c5.25-2.9 11.62.5 12.7 4.83z"/><path class="cls-3" d="M14 27c0 3 .19 4-.72 5.28a4 4 0 01-6.11.55C5.69 31.33 6 29.77 6 27c1.47.61 3.87 1.13 5 0a2.08 2.08 0 013 0z"/><path class="cls-4" d="M14 27c0 3 .19 4-.72 5.28a4 4 0 01-5.11-.45C6.82 30.46 7 29.09 7 27.35c1.15.32 3 .64 4-.35a2.08 2.08 0 013 0z"/><path class="cls-5" d="M14 27a2.08 2.08 0 00-3 0c-1.5 1.5-5 0-5 0a4 4 0 018 0z"/><path class="cls-6" d="M33 46v1H15a10.25 10.25 0 01.52-4A9 9 0 0133 46z"/><path class="cls-6" d="M33 46v1H15a10.25 10.25 0 01.52-4A9 9 0 0133 46z"/><path d="M16.53 41a8.74 8.74 0 00-1 2h-2a8.74 8.74 0 011-2z" fill="#ffba55"/><path class="cls-1" d="M18.45 38.92C15.4 41.32 18 41 14.53 41A8.91 8.91 0 0118 37.93a7.25 7.25 0 01.45.99z"/><path class="cls-8" d="M32.94 45h-13a2.84 2.84 0 01-2.52-3.76 9.22 9.22 0 011.3-2.55A9 9 0 0132.94 45z"/><path class="cls-3" d="M28 31c0 3 .19 4-.72 5.28a4 4 0 01-6.11.55C19.69 35.33 20 33.77 20 31c1.47.61 3.87 1.13 5 0a2.08 2.08 0 013 0z"/><path class="cls-4" d="M28 31c0 3 .19 4-.72 5.28a4 4 0 01-5.11-.45C20.82 34.46 21 33.09 21 31.35c1.15.32 3 .64 4-.35a2.08 2.08 0 013 0z"/><path class="cls-5" d="M28 31a2.08 2.08 0 00-3 0c-1.5 1.5-5 0-5 0a4 4 0 018 0z"/><path class="cls-1" d="M47 42v1H32.48a9 9 0 00-2.93-4.08C33 29.54 47 31.93 47 42z"/><path class="cls-2" d="M46.94 41h-13a2.84 2.84 0 01-2.52-3.76 9.22 9.22 0 011.3-2.55A9 9 0 0146.94 41z"/><path class="cls-3" d="M42 27c0 3 .19 4-.72 5.28a4 4 0 01-6.11.55C33.69 31.33 34 29.77 34 27c1.47.61 3.87 1.13 5 0a2.08 2.08 0 013 0z"/><path class="cls-4" d="M42 27c0 3 .19 4-.72 5.28a4 4 0 01-5.11-.45C34.82 30.46 35 29.09 35 27.35c1.15.32 3 .64 4-.35a2.08 2.08 0 013 0z"/><path class="cls-5" d="M42 27a2.08 2.08 0 00-3 0c-1.5 1.5-5 0-5 0a4 4 0 018 0z"/><path d="M42 27a2.07 2.07 0 00-3 0 2.36 2.36 0 01-1.46.64A9.29 9.29 0 0135 27a4 4 0 013.5-4 4 4 0 013.5 4zm-14 4a2.07 2.07 0 00-3 0 2.36 2.36 0 01-1.46.64A9.29 9.29 0 0121 31a4 4 0 013.5-4 4 4 0 013.5 4zm-14-4a2.07 2.07 0 00-3 0 2.36 2.36 0 01-1.46.64A9.29 9.29 0 017 27a4 4 0 013.5-4 4 4 0 013.5 4z" fill="#425b72"/><path d="M34 11a10 10 0 01-2 6c-5.76 7.67-18 3.54-18-6a10 10 0 014-8 10 10 0 0116 8z" fill="#dad7e5"/><path d="M34 11a10 10 0 01-2 6A10 10 0 0118 3a10 10 0 0116 8z" fill="#edebf2"/><path class="cls-8" d="M29 9h-3V6h-4v3h-3v4h3v3h4v-3h3V9z"/></g></svg>