<svg viewBox="0 0 48 48" xmlns="http://www.w3.org/2000/svg"><defs><style>.cls-1{fill:#7c7d7d}.cls-2{fill:#919191}.cls-3{fill:#f6ccaf}.cls-4{fill:#ffdec7}.cls-5{fill:#374f68}.cls-7{fill:#231f20}</style></defs><g id="Dead"><path class="cls-1" d="M41 7v36H7V7a6 6 0 014.33-5.76C12.47.9 11.21 1 35 1a6 6 0 016 6z"/><path class="cls-2" d="M41 7c0 35.18-.1 34 0 34a31 31 0 01-31-31c0-4.94-.35-6.7 1.33-8.76A5.76 5.76 0 0113 1h22a6 6 0 016 6z"/><path class="cls-3" d="M33 25c0 5.94.43 8.31-1.7 11.25a9 9 0 01-14.3.39c-2.52-3.1-2-5.93-2-11.64 3.56.31 10.56.16 12-3a7.5 7.5 0 006 3z"/><path class="cls-4" d="M33 25c0 5.94.43 8.31-1.7 11.25A8.93 8.93 0 0120.36 36C16.51 33 17 29 17 25.1c3 .07 8.57-.23 10-3.1a7.5 7.5 0 006 3z"/><path class="cls-3" d="M15 25v6h-1a3 3 0 010-6zM37 28a3 3 0 01-3 3h-1v-6h1a3 3 0 013 3z"/><path class="cls-4" d="M36.82 27A3 3 0 0134 29h-1v-4h1a3 3 0 012.82 2z"/><path class="cls-5" d="M34 25h-1a7.5 7.5 0 01-6-3c-1.89 3.78-10.26 3-13 3v-1a10 10 0 0117.07-7.07C33.49 19.35 34 21.88 34 25z"/><path class="cls-5" d="M34 25h-1a7.5 7.5 0 01-6-3c-1.89 3.78-10.26 3-13 3v-1a10 10 0 0117.07-7.07C33.49 19.35 34 21.88 34 25z"/><path class="cls-3" d="M25.79 23.36c-1.93 2.86-8.31 2.84-10.79 2.71V25c3 .26 8.64.12 10.79-1.64zM27 22a3.78 3.78 0 01-.91 1.13A7.54 7.54 0 0032 26h1v-1a7.5 7.5 0 01-6-3z"/><path d="M34 23a9 9 0 01-3.49-.44A7.52 7.52 0 0127 20c-1.43 2.85-6.93 3.16-10 3.1a10 10 0 018.44-9 9.73 9.73 0 015.59 2.81A9.94 9.94 0 0134 23z" fill="#425b72"/><path class="cls-1" d="M43 45v2H5v-2a2 2 0 012-2h34a2 2 0 012 2z"/><path class="cls-2" d="M43 45H9a2 2 0 01-2-2c0-.1-1.18 0 34 0a2 2 0 012 2z"/><path class="cls-7" d="M35 24.14a11 11 0 10-22 0A4 4 0 0014.05 32 10 10 0 0034 32a4 4 0 001-7.86zM24 15a9 9 0 019 9 6.46 6.46 0 01-5.17-2.55 1 1 0 00-1.72.1C24.67 24.42 17.94 24 15 24a9 9 0 019-9zM12 28a2 2 0 012-2v4a2 2 0 01-2-2zm12 11a8 8 0 01-8-8v-4.92c3.41.18 8.66-.07 11.07-2.49A8.46 8.46 0 0032 25.94V31a8 8 0 01-8 8zm10-9v-4a2 2 0 010 4z"/><path class="cls-7" d="M20.29 30.71a1 1 0 001.42-1.42l-.3-.29.3-.29a1 1 0 00-1.42-1.42l-.29.3-.29-.3a1 1 0 00-1.42 1.42l.3.29-.3.29a1 1 0 001.42 1.42l.29-.3zM28.29 27.29l-.29.3-.29-.3a1 1 0 00-1.42 1.42l.3.29-.3.29a1 1 0 001.42 1.42l.29-.3.29.3a1 1 0 001.42-1.42l-.3-.29.3-.29a1 1 0 00-1.42-1.42zM27 33h-6a1 1 0 000 2h3a2 2 0 004 0v-1a1 1 0 00-1-1z"/><path class="cls-7" d="M42 42.18V7a7 7 0 00-7-7H13a7 7 0 00-7 7v35.18A3 3 0 004 45v2a1 1 0 001 1h38a1 1 0 001-1v-2a3 3 0 00-2-2.82zM8 7a5 5 0 015-5h22a5 5 0 015 5v35H8zm34 39H6v-1a1 1 0 011-1h34a1 1 0 011 1z"/><path class="cls-7" d="M17 11V9h1a1 1 0 011 1v1a1 1 0 002 0c0-1.29.06-1.93-.65-2.84A2.49 2.49 0 0018.5 4H16a1 1 0 00-1 1v6a1 1 0 002 0zm0-5h1.5a.5.5 0 01.5.5c0 .66-.75.5-2 .5zM26 11V5a1 1 0 00-2 0v6a1 1 0 002 0zM31 11V9h1.5a2.5 2.5 0 000-5H30a1 1 0 00-1 1v6a1 1 0 002 0zm2-4.5c0 .63-.61.5-2 .5V6h1.5a.5.5 0 01.5.5z"/></g></svg>