<svg viewBox="0 0 64 64" xmlns="http://www.w3.org/2000/svg"><path d="M61 32a3 3 0 01-5.66 1.39l-6.43.38a16.5 16.5 0 01-1.39 5.15l5.39 3.55a2.971 2.971 0 013.11-.07 3 3 0 11-4.5 2.47l-5.76-2.89a16.945 16.945 0 01-3.78 3.78l2.89 5.76a3.006 3.006 0 11-2.4 1.39l-3.55-5.39a16.5 16.5 0 01-5.15 1.39l-.38 6.43a3 3 0 11-2.78 0l-.38-6.43a16.5 16.5 0 01-5.15-1.39l-3.55 5.39a2.971 2.971 0 01.07 3.11 3 3 0 11-2.47-4.5l2.89-5.76a16.945 16.945 0 01-3.78-3.78l-5.76 2.89a3.006 3.006 0 11-1.39-2.4l5.39-3.55a16.5 16.5 0 01-1.39-5.15l-6.43-.38a3 3 0 110-2.78l6.43-.38a16.5 16.5 0 011.39-5.15l-5.39-3.55a2.971 2.971 0 01-3.11.07 3 3 0 114.5-2.47l5.76 2.89a16.945 16.945 0 013.78-3.78l-2.89-5.76a3.006 3.006 0 112.4-1.39l3.55 5.39a16.5 16.5 0 015.15-1.39l.38-6.43a3 3 0 112.78 0l.38 6.43a16.5 16.5 0 015.15 1.39l3.55-5.39a2.971 2.971 0 01-.07-3.11 3 3 0 112.47 4.5l-2.89 5.76a16.945 16.945 0 013.78 3.78l5.76-2.89a3.006 3.006 0 111.39 2.4l-5.39 3.55a16.5 16.5 0 011.39 5.15l6.43.38A3 3 0 0161 32z" fill="#006838"/><path d="M58 29a2.988 2.988 0 00-2.66 1.61l-6.43-.38a16.5 16.5 0 00-1.39-5.15l5.39-3.55a2.971 2.971 0 003.11.07 3 3 0 10-4.5-2.47l-5.76 2.89A17 17 0 0044 19.962a32.043 32.043 0 01-24.628 23.4 16.912 16.912 0 002.647 2.4l-2.89 5.76a3.006 3.006 0 102.4 1.39l3.55-5.39a16.5 16.5 0 005.15 1.39l.38 6.43a3 3 0 102.78 0l.38-6.43a16.5 16.5 0 005.15-1.39l3.55 5.39a2.971 2.971 0 00-.07 3.11 3 3 0 102.47-4.5l-2.89-5.76a16.945 16.945 0 003.78-3.78l5.76 2.89a3.006 3.006 0 101.39-2.4l-5.39-3.55a16.5 16.5 0 001.39-5.15l6.43-.38A3 3 0 1058 29z" fill="#005e32"/><circle cx="32" cy="23" r="3" fill="#cd2a00"/><circle cx="32" cy="6" r="3" fill="#cd2a00"/><circle cx="19" cy="9.483" r="3" fill="#cd2a00"/><circle cx="9.483" cy="19" r="3" fill="#cd2a00"/><circle cx="6" cy="32" r="3" fill="#cd2a00"/><circle cx="9.483" cy="45" r="3" fill="#cd2a00"/><circle cx="19" cy="54.517" r="3" fill="#ab2300"/><circle cx="32" cy="58" r="3" fill="#ab2300"/><circle cx="45" cy="54.517" r="3" fill="#ab2300"/><circle cx="54.517" cy="45" r="3" fill="#ab2300"/><circle cx="58" cy="32" r="3" fill="#ab2300"/><circle cx="54.517" cy="19" r="3" fill="#ab2300"/><circle cx="45" cy="9.483" r="3" fill="#cd2a00"/><circle cx="27" cy="37" r="3" fill="#cd2a00"/><circle cx="40" cy="32" r="4" fill="#ab2300"/><circle cx="23" cy="29" r="2" fill="#ed1c24"/><circle cx="36" cy="41" r="2" fill="#ed1c24"/><path d="M32 62a4 4 0 01-2.423-7.186l-.3-5.018a17.527 17.527 0 01-3.825-1.029l-2.767 4.2a4 4 0 11-4.19-2.421l2.255-4.494a17.912 17.912 0 01-2.807-2.807l-4.49 2.255a4 4 0 11-2.421-4.19l4.2-2.766a17.527 17.527 0 01-1.032-3.825l-5.018-.3a4 4 0 110-4.846l5.018-.3a17.527 17.527 0 011.029-3.825l-4.2-2.767a4 4 0 112.424-4.181l4.494 2.254a17.912 17.912 0 012.807-2.807L18.5 13.453a4 4 0 114.19-2.421l2.767 4.2a17.43 17.43 0 013.824-1.032l.3-5.018a4 4 0 114.846 0l.3 5.018a17.43 17.43 0 013.825 1.029l2.767-4.2a4 4 0 114.19 2.421l-2.255 4.494a17.912 17.912 0 012.807 2.807l4.486-2.251a4 4 0 112.421 4.189l-4.2 2.767a17.527 17.527 0 011.032 3.825l5.018.3a4 4 0 110 4.846l-5.018.3a17.527 17.527 0 01-1.029 3.825l4.2 2.766a4 4 0 11-2.421 4.19l-4.494-2.254a17.912 17.912 0 01-2.807 2.807l2.251 4.486a4 4 0 11-4.19 2.421l-2.767-4.2a17.527 17.527 0 01-3.824 1.032l-.3 5.018A4 4 0 0132 62zm-6.919-15.48a1 1 0 01.414.09 15.543 15.543 0 004.84 1.306 1 1 0 01.894.935l.379 6.43a1 1 0 01-.536.946 2 2 0 101.856 0 1 1 0 01-.536-.946l.379-6.43a1 1 0 01.894-.935 15.543 15.543 0 004.84-1.306 1 1 0 011.25.36l3.55 5.39a1 1 0 010 1.094 1.975 1.975 0 00-.041 2.068 2.008 2.008 0 003.669-.494 2.006 2.006 0 00-2.021-2.509 1 1 0 01-.939-.551l-2.89-5.76a1 1 0 01.307-1.258 15.891 15.891 0 003.556-3.556 1 1 0 011.258-.308l5.76 2.891a1 1 0 01.551.939A2 2 0 0056.244 46a2.007 2.007 0 00-.726-2.735 1.973 1.973 0 00-2.064.044 1 1 0 01-1.094 0l-5.39-3.55a1 1 0 01-.361-1.251 15.5 15.5 0 001.307-4.838 1 1 0 01.936-.894l6.429-.38a1 1 0 01.946.536 2 2 0 100-1.856 1 1 0 01-.946.536l-6.429-.38a1 1 0 01-.936-.894 15.5 15.5 0 00-1.307-4.838 1 1 0 01.361-1.251l5.39-3.55a1 1 0 011.094 0 1.978 1.978 0 002.067.042 2.007 2.007 0 00-.493-3.669 2 2 0 00-2.509 2.02 1 1 0 01-.551.939l-5.76 2.891a1 1 0 01-1.258-.308 15.891 15.891 0 00-3.556-3.556 1 1 0 01-.307-1.258l2.89-5.76a1 1 0 01.939-.551A2 2 0 0046 7.757a2.006 2.006 0 00-2.735.725 1.973 1.973 0 00.043 2.064 1 1 0 010 1.094l-3.55 5.39a1 1 0 01-1.25.36 15.5 15.5 0 00-4.839-1.306 1 1 0 01-.895-.935l-.379-6.43a1 1 0 01.536-.946 2 2 0 10-1.856 0 1 1 0 01.536.946l-.379 6.43a1 1 0 01-.895.935A15.5 15.5 0 0025.5 17.39a1 1 0 01-1.25-.36l-3.55-5.39a1 1 0 010-1.094 1.975 1.975 0 00.041-2.068 2.007 2.007 0 00-3.668.493 2 2 0 002.02 2.51 1 1 0 01.939.551l2.89 5.76a1 1 0 01-.307 1.258 15.891 15.891 0 00-3.556 3.556 1 1 0 01-1.258.308l-5.76-2.891a1 1 0 01-.551-.939A2 2 0 007.756 18a2.007 2.007 0 00.726 2.735 1.977 1.977 0 002.064-.044 1 1 0 011.094 0l5.39 3.55a1 1 0 01.361 1.251 15.5 15.5 0 00-1.307 4.838 1 1 0 01-.936.894l-6.429.38a.994.994 0 01-.946-.536 2 2 0 100 1.856 1 1 0 01.946-.536l6.429.38a1 1 0 01.936.894 15.5 15.5 0 001.307 4.838 1 1 0 01-.361 1.251l-5.39 3.55a1 1 0 01-1.094 0 1.972 1.972 0 00-2.067-.042 2.007 2.007 0 00.493 3.669 2 2 0 002.509-2.02 1 1 0 01.551-.939l5.76-2.891a1 1 0 011.258.308 15.891 15.891 0 003.556 3.556 1 1 0 01.307 1.258l-2.89 5.76a1 1 0 01-.939.551 2.005 2.005 0 00-2.021 2.509 2.008 2.008 0 003.671.49 1.973 1.973 0 00-.043-2.064 1 1 0 010-1.094l3.55-5.39a1 1 0 01.84-.442z" fill="#231f20"/><path d="M32 27a4 4 0 114-4 4 4 0 01-4 4zm0-6a2 2 0 102 2 2 2 0 00-2-2zM27 41a4 4 0 114-4 4 4 0 01-4 4zm0-6a2 2 0 102 2 2 2 0 00-2-2zM40 37a5 5 0 115-5 5.006 5.006 0 01-5 5zm0-8a3 3 0 103 3 3 3 0 00-3-3zM23 32a3 3 0 113-3 3 3 0 01-3 3zm0-4a1 1 0 101 1 1 1 0 00-1-1zM36 44a3 3 0 113-3 3 3 0 01-3 3zm0-4a1 1 0 101 1 1 1 0 00-1-1z" fill="#231f20"/></svg>